<svg xmlns="http://www.w3.org/2000/svg" width="109.83" height="66.002" viewBox="0 0 29.059 17.463"><path d="M966.273 152.495v78.365c0 1.158.939 2.098 2.1 2.098h104.957a2.1 2.1 0 0 0 2.096-2.098v-78.365a2.1 2.1 0 0 0-2.096-2.102H968.372a2.1 2.1 0 0 0-2.099 2.102" style="fill:#3b3631" transform="matrix(.26458 0 0 .26458 -257.006 -7.056)"/><path d="M972.413 156.819h96.871v69.713h-96.871z" style="fill:#a5de7c" transform="matrix(.26458 0 0 .26458 -257.006 -7.056)"/><path d="M1065.913 224.045h-90.129c.65 0 2.879-32.5 20.141-30.324 5.461.689 11.516 9.4 17.332 9.307 14.875-.234 12.514-29.291 32.115-27.168 19.832 2.15 20.541 34.719 20.541 48.185" style="fill:#3b3631" transform="matrix(.26458 0 0 .26458 -257.006 -7.056)"/><circle cx="1003.276" cy="175.296" r="10.163" style="fill:#3b3631" transform="matrix(.26458 0 0 .26458 -257.006 -7.056)"/><path d="M971.361 87.364a5.306 5.306 0 0 1 5.307-5.305h9.391a5.305 5.305 0 0 1 5.305 5.305 5.305 5.305 0 0 1-5.305 5.307h-9.391a5.306 5.306 0 0 1-5.307-5.307" style="fill:#de3c3c" transform="matrix(.26458 0 0 .26458 -257.006 -7.056)"/><path d="M999.124 92.671h9.389a5.307 5.307 0 1 0 0-10.612h-9.389a5.305 5.305 0 0 0-5.305 5.305 5.305 5.305 0 0 0 5.305 5.307" style="fill:#e68040" transform="matrix(.26458 0 0 .26458 -257.006 -7.056)"/><path d="M1030.972 82.059h-9.391a5.305 5.305 0 0 0-5.305 5.305 5.305 5.305 0 0 0 5.305 5.307h9.391a5.307 5.307 0 0 0 0-10.612" style="fill:#ffe600" transform="matrix(.26458 0 0 .26458 -257.006 -7.056)"/><path d="M1053.427 82.059h-9.389a5.31 5.31 0 0 0-5.309 5.305 5.31 5.31 0 0 0 5.309 5.307h9.389a5.305 5.305 0 0 0 5.305-5.307 5.305 5.305 0 0 0-5.305-5.305" style="fill:#8fc730" transform="matrix(.26458 0 0 .26458 -257.006 -7.056)"/><path d="M1075.884 82.059h-9.391a5.305 5.305 0 0 0-5.305 5.305 5.305 5.305 0 0 0 5.305 5.307h9.391a5.305 5.305 0 0 0 5.305-5.307 5.305 5.305 0 0 0-5.305-5.305" style="fill:#3ccfa8" transform="matrix(.26458 0 0 .26458 -257.006 -7.056)"/><path d="M976.667 78.825h9.391a5.308 5.308 0 0 0 0-10.614h-9.391a5.306 5.306 0 1 0 0 10.614" style="fill:#de3c3c" transform="matrix(.26458 0 0 .26458 -257.006 -7.056)"/><path d="M1008.513 68.212h-9.389a5.308 5.308 0 0 0 0 10.614h9.389a5.307 5.307 0 1 0 0-10.614" style="fill:#e68040" transform="matrix(.26458 0 0 .26458 -257.006 -7.056)"/><path d="M1030.972 68.212h-9.391a5.308 5.308 0 0 0 0 10.614h9.391a5.307 5.307 0 0 0 0-10.614" style="fill:#ffe600" transform="matrix(.26458 0 0 .26458 -257.006 -7.056)"/><path d="M1053.427 68.212h-9.389a5.31 5.31 0 0 0-5.309 5.307 5.31 5.31 0 0 0 5.309 5.307h9.389a5.308 5.308 0 0 0 0-10.614" style="fill:#8fc730" transform="matrix(.26458 0 0 .26458 -257.006 -7.056)"/><path d="M1075.884 68.212h-9.391a5.308 5.308 0 0 0 0 10.614h9.391a5.308 5.308 0 0 0 0-10.614" style="fill:#3ccfa8" transform="matrix(.26458 0 0 .26458 -257.006 -7.056)"/><path d="M976.667 64.977h9.391a5.306 5.306 0 0 0 5.305-5.309 5.306 5.306 0 0 0-5.305-5.305h-9.391a5.307 5.307 0 0 0 0 10.614" style="fill:#de3c3c" transform="matrix(.26458 0 0 .26458 -257.006 -7.056)"/><path d="M1008.513 54.364h-9.389a5.306 5.306 0 0 0-5.305 5.305 5.306 5.306 0 0 0 5.305 5.309h9.389a5.307 5.307 0 0 0 0-10.614" style="fill:#e68040" transform="matrix(.26458 0 0 .26458 -257.006 -7.056)"/><path d="M1030.972 54.364h-9.391a5.306 5.306 0 0 0-5.305 5.305 5.306 5.306 0 0 0 5.305 5.309h9.391a5.307 5.307 0 0 0 0-10.614" style="fill:#ffe600" transform="matrix(.26458 0 0 .26458 -257.006 -7.056)"/><path d="M1053.427 54.364h-9.389a5.31 5.31 0 0 0-5.309 5.305 5.31 5.31 0 0 0 5.309 5.309h9.389a5.306 5.306 0 0 0 5.305-5.309 5.306 5.306 0 0 0-5.305-5.305" style="fill:#8fc730" transform="matrix(.26458 0 0 .26458 -257.006 -7.056)"/><path d="M1061.189 59.669a5.306 5.306 0 0 0 5.305 5.309h9.391a5.306 5.306 0 0 0 5.305-5.309 5.306 5.306 0 0 0-5.305-5.305h-9.391a5.306 5.306 0 0 0-5.305 5.305" style="fill:#3ccfa8" transform="matrix(.26458 0 0 .26458 -257.006 -7.056)"/><path d="M976.667 51.128h9.391a5.306 5.306 0 0 0 0-10.612h-9.391a5.307 5.307 0 1 0 0 10.612" style="fill:#de3c3c" transform="matrix(.26458 0 0 .26458 -257.006 -7.056)"/><path d="M1030.972 40.516h-9.391a5.306 5.306 0 0 0 0 10.612h9.391a5.306 5.306 0 0 0 0-10.612" style="fill:#ffe600" transform="matrix(.26458 0 0 .26458 -257.006 -7.056)"/><path d="M1053.427 40.516h-9.389a5.31 5.31 0 0 0-5.309 5.309 5.31 5.31 0 0 0 5.309 5.303h9.389a5.306 5.306 0 0 0 0-10.612" style="fill:#8fc730" transform="matrix(.26458 0 0 .26458 -257.006 -7.056)"/><path d="M1030.972 26.669h-9.391a5.305 5.305 0 0 0 0 10.61h9.391a5.306 5.306 0 0 0 0-10.61" style="fill:#ffe600" transform="matrix(.26458 0 0 .26458 -257.006 -7.056)"/><path d="M205.027 144.279h-45.72c-7.59 0-13.766 6.174-13.766 13.766v78.285c0 7.592 6.176 13.768 13.766 13.768h45.72c7.591 0 13.766-6.176 13.766-13.768v-78.285c0-7.592-6.175-13.766-13.766-13.766" style="fill:#231f20" transform="matrix(.26458 0 0 .26458 -257.006 -7.056)"/><path d="M191.643 218.166h5.177v19.291h-5.177zM181.895 227.81l-13.645-9.644v19.291zM182.115 218.166h5.176v19.291h-5.176zM203.123 151.867h-41.91c-4.326 0-7.866 3.537-7.866 7.865v37.408a7.87 7.87 0 0 0 3.512 6.543l50.541-50.545a7.82 7.82 0 0 0-4.277-1.271" style="fill:#ffb662" transform="matrix(.26458 0 0 .26458 -257.006 -7.056)"/><path d="m207.399 153.138-50.541 50.545a7.8 7.8 0 0 0 4.354 1.324h41.91c4.326 0 7.866-3.539 7.866-7.867v-37.408c.001-2.75-1.432-5.187-3.589-6.594" style="fill:#f79452" transform="matrix(.26458 0 0 .26458 -257.006 -7.056)"/><path d="M1184.906 148.858h-49.883a2.75 2.75 0 0 0-2.742 2.742v83.371a2.75 2.75 0 0 0 2.742 2.742h65.283a2.75 2.75 0 0 0 2.742-2.742v-67.969z" style="fill:#3d383d" transform="matrix(.26458 0 0 .26458 -257.006 -7.056)"/><path d="M1132.494 179.356h4.477v12.258h-4.477z" style="fill:#858585" transform="matrix(.26458 0 0 .26458 -257.006 -7.056)"/><path d="M1132.494 167.104h4.477v12.252h-4.477z" style="fill:#c7c7c7" transform="matrix(.26458 0 0 .26458 -257.006 -7.056)"/><path d="M1158.553 200.46c2.791 0 6.793.887 6.793 2.221 0 .889-1.272 2.984-2.062 2.984-.385 0-1.811-1.014-4.826-1.014-3.744 0-5.488 2.379-5.488 7.141 0 4.76 1.777 7.236 5.424 7.236.891 0 1.619-.064 2.477-.223v-4.031h-2.793c-.666 0-.951-.477-.951-1.586v-1.02c0-1.107.285-1.586.951-1.586h6.443c.887 0 1.268.387 1.268 1.273v8.82c0 2.191-5.141 2.51-7.395 2.51-7.107 0-10.439-3.586-10.439-11.426 0-7.555 3.553-11.299 10.598-11.299M1170.043 201.985c0-.887.379-1.269 1.268-1.269h6.283c5.365 0 7.49 2.285 7.49 5.617 0 2.156-1.523 4.029-3.428 4.826l.033.123c2.535.51 4.285 2.764 4.285 5.207 0 4.094-2.572 6.441-7.936 6.441h-6.728c-.889 0-1.268-.381-1.268-1.268v-19.677zm7.076 7.586c1.902 0 2.951-1.049 2.951-2.381 0-1.557-.953-2.35-2.889-2.35h-2.252v4.73zm.92 9.203c1.84 0 2.92-.922 2.92-2.572s-1.238-2.478-3.428-2.478h-2.602v5.051h3.11z" style="fill:#67b0f5" transform="matrix(.26458 0 0 .26458 -257.006 -7.056)"/><path d="M583.292 152.269h49.88a2.75 2.75 0 0 1 2.743 2.742v83.371a2.75 2.75 0 0 1-2.743 2.742h-65.279a2.75 2.75 0 0 1-2.744-2.742v-67.969z" style="fill:#3d383d" transform="matrix(.26458 0 0 .26458 -257.006 -7.056)"/><path d="M619.441 158.476h9.687v19.109h-9.687zM607.321 158.476h9.686v19.109h-9.686zM595.2 158.476h9.688v19.109H595.2zM583.079 158.476h9.689v19.109h-9.689zM570.96 171.095h9.686v13.059h-9.686z" style="fill:#67b0f5" transform="matrix(.26458 0 0 .26458 -257.006 -7.056)"/><path d="M631.435 182.767h4.48v12.258h-4.48z" style="fill:#858585" transform="matrix(.26458 0 0 .26458 -257.006 -7.056)"/><path d="M631.435 170.515h4.48v12.252h-4.48z" style="fill:#c7c7c7" transform="matrix(.26458 0 0 .26458 -257.006 -7.056)"/><path d="M706.643 169.517c5.132-6.434 11.926-11.627 19.447-14.84l21.272 19.779zM732.157 152.545a49.7 49.7 0 0 1 13.344-1.814c3.751 0 7.488.422 11.127 1.256l5.582 28.504zM762.787 153.828a49.5 49.5 0 0 1 9.81 4.957 49.8 49.8 0 0 1 10.311 8.982l-12.233 26.334zM786.81 172.877a49.2 49.2 0 0 1 8.094 23.092l-25.381 14.117zM759.196 222.344l35.853-19.941a49.4 49.4 0 0 1-7.02 23.439zM743.636 226.187l40.72 4.941c-5.131 6.434-11.926 11.625-19.445 14.838zM745.501 249.918a49.7 49.7 0 0 1-11.127-1.258l-5.584-28.506 30.054 27.945a49.6 49.6 0 0 1-13.343 1.819M695.949 198.246a49.4 49.4 0 0 1 7.022-23.441l28.835 3.496zM704.189 227.769a49.2 49.2 0 0 1-8.094-23.094l25.381-14.117zM728.213 246.818a49.4 49.4 0 0 1-9.808-4.955 49.8 49.8 0 0 1-10.315-8.986l12.234-26.332z" style="fill:#fafafa" transform="matrix(.26458 0 0 .26458 -257.006 -7.056)"/><path d="M40.705 73.413H24.388c-3.168 0-5.761-2.592-5.761-5.76V47.866c0-3.168 2.593-5.762 5.761-5.762h16.317z" style="fill:#ffbf7d" transform="matrix(.26458 0 0 .26458 -257.006 -7.056)"/><path d="m40.705 42.104 27.252-16.336v63.981L40.705 73.413z" style="fill:#ffa84d" transform="matrix(.26458 0 0 .26458 -257.006 -7.056)"/><path d="M75.17 82.163a1.21 1.21 0 0 1-1.204-1.209c0-.664.539-1.203 1.204-1.203 12.126 0 21.991-9.865 21.991-21.992 0-12.129-9.865-21.992-21.991-21.992a1.204 1.204 0 0 1 0-2.408c13.455 0 24.401 10.947 24.401 24.4 0 13.456-10.946 24.404-24.401 24.404" style="fill:#ffeedb" transform="matrix(.26458 0 0 .26458 -257.006 -7.056)"/><path d="M75.17 76.114a1.206 1.206 0 0 1 0-2.41c8.793 0 15.945-7.152 15.945-15.945 0-8.791-7.152-15.945-15.945-15.945a1.204 1.204 0 1 1 0-2.406c10.121 0 18.355 8.233 18.355 18.352S85.291 76.114 75.17 76.114" style="fill:#ffd8b0" transform="matrix(.26458 0 0 .26458 -257.006 -7.056)"/><path d="M75.17 69.512a1.205 1.205 0 0 1 0-2.412c5.152 0 9.344-4.189 9.344-9.342 0-5.152-4.191-9.342-9.344-9.342a1.204 1.204 0 0 1 0-2.408c6.482 0 11.753 5.268 11.753 11.75 0 6.481-5.271 11.754-11.753 11.754" style="fill:#ffbf7d" transform="matrix(.26458 0 0 .26458 -257.006 -7.056)"/><path d="M642.562 28.649h-75.258c-4.129 0-7.488 3.359-7.488 7.488v40.168a7.494 7.494 0 0 0 7.488 7.488h75.258a7.49 7.49 0 0 0 7.486-7.488V36.137c0-4.129-3.357-7.488-7.486-7.488" style="fill:#f7d731" transform="matrix(.26458 0 0 .26458 -257.006 -7.056)"/><path d="M642.562 21.161h-75.258c-8.258 0-14.976 6.719-14.976 14.977v47.068c0 8.256 6.718 14.973 14.976 14.973h75.258c8.256 0 14.975-6.717 14.975-14.973V36.137c-.001-8.257-6.719-14.976-14.975-14.976m-75.11 74.363a3.391 3.391 0 1 1 .004-6.782 3.391 3.391 0 0 1-.004 6.782m10.316-4.537a2.243 2.243 0 1 1 0-4.488 2.243 2.243 0 0 1 2.245 2.244 2.247 2.247 0 0 1-2.245 2.244m28.141 4.904a2.157 2.157 0 1 1 0-4.316 2.157 2.157 0 1 1 0 4.316m26.188-4.929a2.244 2.244 0 1 1 0-4.489 2.244 2.244 0 0 1 0 4.489m10.314 4.535a3.39 3.39 0 1 1 0-6.781 3.39 3.39 0 0 1 0 6.781m7.637-19.192a7.49 7.49 0 0 1-7.486 7.488h-75.258a7.494 7.494 0 0 1-7.488-7.488V36.137c0-4.129 3.359-7.488 7.488-7.488h75.258c4.129 0 7.486 3.359 7.486 7.488z" style="fill:#231f20" transform="matrix(.26458 0 0 .26458 -257.006 -7.056)"/><circle cx="584.627" cy="56.84" r="21.234" style="fill:#231f20" transform="matrix(.26458 0 0 .26458 -257.006 -7.056)"/><circle cx="584.626" cy="56.84" r="7.755" style="fill:#ffef9e" transform="matrix(.26458 0 0 .26458 -257.006 -7.056)"/><ellipse cx="626.682" cy="56.959" rx="13.371" ry="13.373" style="fill:#231f20" transform="matrix(.26458 0 0 .26458 -257.006 -7.056)"/><circle cx="626.683" cy="56.84" r="7.756" style="fill:#ffef9e" transform="matrix(.26458 0 0 .26458 -257.006 -7.056)"/><path d="M351.079 47.036h13.148v5.066h-13.148zM299.392 47.036h13.146v5.066h-13.146z" style="fill:#ededed" transform="matrix(.26458 0 0 .26458 -257.006 -7.056)"/><path d="M300.232 42.479a7.06 7.06 0 0 0-7.059 7.059c0 3.9 3.16 7.059 7.059 7.059zM364.227 42.479a7.06 7.06 0 0 1 0 14.118zM354.327 59.76c0 6.188-5.062 11.246-11.249 11.246H321.4c-6.185 0-11.247-5.058-11.247-11.246V25.2c0-6.187 5.063-11.248 11.247-11.248h21.678c6.188 0 11.249 5.061 11.249 11.248z" style="fill:#ededed" transform="matrix(.26458 0 0 .26458 -257.006 -7.056)"/><path d="M342.303 84.333h-20.126c-13.766 0-24.964-10.062-24.964-22.434v-19.42a3.02 3.02 0 0 1 3.019-3.02 3.02 3.02 0 0 1 3.018 3.02v19.42c0 9.041 8.49 16.399 18.928 16.399h20.126c10.438 0 18.93-7.358 18.93-16.399v-19.42a3.02 3.02 0 0 1 3.018-3.02 3.02 3.02 0 0 1 3.018 3.02v19.42c-.002 12.371-11.201 22.434-24.967 22.434" style="fill:#ccc" transform="matrix(.26458 0 0 .26458 -257.006 -7.056)"/><path d="M328.826 84.055h6.827v13.144h-6.827z" style="fill:#ccc" transform="matrix(.26458 0 0 .26458 -257.006 -7.056)"/><path d="M314.789 94.188h34.9v8.459h-34.9z" style="fill:#ededed" transform="matrix(.26458 0 0 .26458 -257.006 -7.056)"/><path d="M337.848 56.581h16.48v1.916h-16.48zM337.848 41.186h16.48v1.922h-16.48zM337.848 33.491h16.48v1.92h-16.48zM337.848 25.796h16.48v1.916h-16.48zM310.153 56.581h16.478v1.916h-16.478zM310.153 41.186h16.478v1.922h-16.478zM310.153 33.491h16.478v1.92h-16.478zM310.153 25.796h16.478v1.916h-16.478z" style="fill:#b3b3b3" transform="matrix(.26458 0 0 .26458 -257.006 -7.056)"/><path d="M337.848 55.481h16.48v1.92h-16.48zM337.848 40.087h16.48v1.922h-16.48zM337.848 32.391h16.48v1.922h-16.48zM337.848 24.696h16.48v1.92h-16.48zM310.153 55.481h16.478v1.92h-16.478zM310.153 40.087h16.478v1.922h-16.478zM310.153 32.391h16.478v1.922h-16.478zM310.153 24.696h16.478v1.92h-16.478z" style="fill:#d9d9d9" transform="matrix(.26458 0 0 .26458 -257.006 -7.056)"/><path d="M324.295 76.557h15.891v9.516h-15.891z" style="fill:#ededed" transform="matrix(.26458 0 0 .26458 -257.006 -7.056)"/><circle cx="354.327" cy="49.569" r="3.964" style="fill:#ededed" transform="matrix(.26458 0 0 .26458 -257.006 -7.056)"/><circle cx="310.155" cy="49.569" r="3.963" style="fill:#ededed" transform="matrix(.26458 0 0 .26458 -257.006 -7.056)"/><path d="M337.848 48.881h16.48v1.92h-16.48zM310.153 48.881h16.478v1.92h-16.478z" style="fill:#b3b3b3" transform="matrix(.26458 0 0 .26458 -257.006 -7.056)"/><path d="M337.848 47.784h16.48v1.922h-16.48zM310.153 47.784h16.478v1.922h-16.478z" style="fill:#d9d9d9" transform="matrix(.26458 0 0 .26458 -257.006 -7.056)"/><path d="M438.652 102.227c-9.505 0-17.282-7.779-17.282-17.285V34.395c0-9.504 7.777-17.279 17.282-17.279h51.071c9.507 0 17.282 7.775 17.282 17.279v50.547c0 9.506-7.775 17.285-17.282 17.285z" style="fill:#242229" transform="matrix(.26458 0 0 .26458 -257.006 -7.056)"/><path d="M486.141 91.09a2.01 2.01 0 0 1-2.011-2.008V30.258c0-1.109.9-2.008 2.011-2.008a2.01 2.01 0 0 1 2.012 2.008v58.824a2.01 2.01 0 0 1-2.012 2.008M464.188 91.09a2.01 2.01 0 0 1-2.012-2.008V30.258a2.01 2.01 0 0 1 2.012-2.008 2.01 2.01 0 0 1 2.012 2.008v58.824a2.01 2.01 0 0 1-2.012 2.008M442.234 91.09a2.01 2.01 0 0 1-2.011-2.008V30.258c0-1.109.9-2.008 2.011-2.008a2.01 2.01 0 0 1 2.012 2.008v58.824a2.01 2.01 0 0 1-2.012 2.008" style="fill:#454054" transform="matrix(.26458 0 0 .26458 -257.006 -7.056)"/><path d="M449.046 48.223a2.754 2.754 0 0 1-2.744 2.744h-8.136a2.753 2.753 0 0 1-2.743-2.744v-6.582a2.75 2.75 0 0 1 2.743-2.742h8.136a2.75 2.75 0 0 1 2.744 2.742zM470.998 78.577a2.75 2.75 0 0 1-2.743 2.744h-8.136a2.75 2.75 0 0 1-2.743-2.744v-6.58a2.75 2.75 0 0 1 2.743-2.742h8.136a2.75 2.75 0 0 1 2.743 2.742zM492.952 63.122a2.75 2.75 0 0 1-2.742 2.742h-8.138a2.75 2.75 0 0 1-2.743-2.742V56.54a2.753 2.753 0 0 1 2.743-2.744h8.138a2.754 2.754 0 0 1 2.742 2.744z" style="fill:#8dbade" transform="matrix(.26458 0 0 .26458 -257.006 -7.056)"/><circle cx="442.234" cy="44.931" r="3.02" style="fill:#c9e7ff" transform="matrix(.26458 0 0 .26458 -257.006 -7.056)"/><circle cx="464.187" cy="75.287" r="3.019" style="fill:#c9e7ff" transform="matrix(.26458 0 0 .26458 -257.006 -7.056)"/><circle cx="486.141" cy="59.83" r="3.019" style="fill:#c9e7ff" transform="matrix(.26458 0 0 .26458 -257.006 -7.056)"/><path d="M35.185 213.687H18.868c-3.168 0-5.76-2.592-5.76-5.762v-19.787c0-3.168 2.592-5.76 5.76-5.76h16.317z" style="fill:#e6e6e6" transform="matrix(.26458 0 0 .26458 -257.006 -7.056)"/><path d="m35.185 182.379 27.253-16.338v63.982l-27.253-16.336z" style="fill:#fafafa" transform="matrix(.26458 0 0 .26458 -257.006 -7.056)"/><path d="M58.691 216.265a2.747 2.747 0 0 1-3.878 0l-7.314-7.316a2.746 2.746 0 0 1 0-3.877l25.271-25.273a2.75 2.75 0 0 1 3.88 0l7.315 7.316a2.753 2.753 0 0 1 0 3.881z" style="fill:#ff4745" transform="matrix(.26458 0 0 .26458 -257.006 -7.056)"/><path d="M47.499 190.996a2.75 2.75 0 0 1 0-3.881l7.314-7.316a2.747 2.747 0 0 1 3.878 0l25.273 25.273a2.75 2.75 0 0 1 0 3.877l-7.315 7.316a2.75 2.75 0 0 1-3.88 0z" style="fill:#ff4745" transform="matrix(.26458 0 0 .26458 -257.006 -7.056)"/><path d="M867.203 107.897c-5.478 0-11.093-.965-14.949-3.281-2.489-1.494-4.038-3.42-4.603-5.728-.628-2.555 1.755-7.121 5.755-14.346 1.407-2.541 2.737-4.943 3.121-6.049a1.837 1.837 0 0 1 3.474 1.195c-.489 1.412-1.829 3.834-3.38 6.635-1.961 3.539-5.609 10.127-5.396 11.713.318 1.295 1.303 2.459 2.922 3.432 5.398 3.242 15.656 3.398 22.454 1.674a1.839 1.839 0 0 1 .902 3.565c-2.986.753-6.614 1.19-10.3 1.19" style="fill:#3d3d3d" transform="matrix(.26458 0 0 .26458 -257.006 -7.056)"/><path d="M912.567 79.157a3.66 3.66 0 0 1-2.598-1.078 3.67 3.67 0 0 1 0-5.193c6.371-6.373 9.882-14.844 9.882-23.857 0-9.008-3.511-17.48-9.882-23.85-6.372-6.373-14.842-9.885-23.854-9.885-9.009 0-17.481 3.512-23.853 9.885-13.152 13.152-13.152 34.553 0 47.707a3.673 3.673 0 1 1-5.196 5.195c-16.019-16.02-16.019-42.082 0-58.102 7.76-7.756 18.077-12.031 29.049-12.031 10.974 0 21.29 4.275 29.05 12.031 7.76 7.76 12.033 18.08 12.033 29.049 0 10.977-4.273 21.293-12.033 29.053a3.67 3.67 0 0 1-2.598 1.076" style="fill:#3d3d3d" transform="matrix(.26458 0 0 .26458 -257.006 -7.056)"/><path d="M872.419 94.671a4.18 4.18 0 0 1-3.93-2.752L856.178 58.09a4.173 4.173 0 0 1 2.499-5.353 4.18 4.18 0 0 1 5.361 2.494l12.311 33.824a4.18 4.18 0 0 1-2.5 5.359 4.1 4.1 0 0 1-1.43.257" style="fill:#231f20" transform="matrix(.26458 0 0 .26458 -257.006 -7.056)"/><path d="M859.801 59.102a3.7 3.7 0 0 0-1.899-2.074 3.7 3.7 0 0 0-2.811-.121c-10.097 3.674-15.322 14.879-11.647 24.975 2.792 7.674 10.152 12.826 18.314 12.826 2.271 0 4.515-.394 6.664-1.176a3.7 3.7 0 0 0 2.073-1.9 3.68 3.68 0 0 0 .123-2.808zM899.526 94.044a4.185 4.185 0 0 0 3.931-2.754l12.311-33.822a4.18 4.18 0 1 0-7.859-2.861l-12.312 33.82a4.18 4.18 0 0 0 2.501 5.361c.47.174.952.256 1.428.256" style="fill:#231f20" transform="matrix(.26458 0 0 .26458 -257.006 -7.056)"/><path d="M916.671 56.907a3.7 3.7 0 0 0-2.81.121 3.7 3.7 0 0 0-1.9 2.074l-10.815 29.721a3.67 3.67 0 0 0 2.195 4.708 19.5 19.5 0 0 0 6.663 1.176c8.162 0 15.522-5.152 18.314-12.826 3.675-10.095-1.55-21.3-11.647-24.974" style="fill:#231f20" transform="matrix(.26458 0 0 .26458 -257.006 -7.056)"/><circle cx="877.051" cy="104.925" r="6.469" style="fill:#231f20" transform="matrix(.26458 0 0 .26458 -257.006 -7.056)"/><path d="M296.586 166.434c-6.596 0-11.994 5.398-11.994 11.992v46.182c0 6.596 5.399 11.994 11.994 11.994h13.122v-70.168z" style="fill:#383838" transform="matrix(.26458 0 0 .26458 -257.006 -7.056)"/><path d="M363.918 166.434h-54.21v70.168h54.21c6.596 0 11.993-5.398 11.993-11.994v-46.182c0-6.593-5.398-11.992-11.993-11.992" style="fill:#231f20" transform="matrix(.26458 0 0 .26458 -257.006 -7.056)"/><path d="m352.511 154.77 8.671 18.324h-44.73l8.672-18.324z" style="fill:#231f20" transform="matrix(.26458 0 0 .26458 -257.006 -7.056)"/><circle cx="297.295" cy="178.718" r="4.537" style="fill:#fff" transform="matrix(.26458 0 0 .26458 -257.006 -7.056)"/><circle cx="338.415" cy="201.518" r="22.843" style="fill:#fff" transform="matrix(.26458 0 0 .26458 -257.006 -7.056)"/><circle cx="338.414" cy="201.518" r="17.715" style="fill:#9c9c9c" transform="matrix(.26458 0 0 .26458 -257.006 -7.056)"/><circle cx="334.545" cy="197.649" r="10.233" style="fill:#d4d4d4" transform="matrix(.26458 0 0 .26458 -257.006 -7.056)"/><path d="M1195.437 18.612h-56.47c-7.543 0-13.717 6.172-13.717 13.717V88.95c0 7.545 6.174 13.717 13.717 13.717h57.271c7.543 0 13.715-6.172 13.715-13.717V32.329c0-7.545-6.172-13.717-13.715-13.717z" style="fill:#f2f2f2" transform="matrix(.26458 0 0 .26458 -257.006 -7.056)"/><path d="M1151.931 18.778h3.109v83.889h-3.109z" style="fill:#303030" transform="matrix(.26458 0 0 .26458 -257.006 -7.056)"/><path d="M1146.698 18.596h13.576v59.08h-13.576zM1174.931 18.596h13.576v59.08h-13.576z" style="fill:#303030" transform="matrix(.26458 0 0 .26458 -257.006 -7.056)"/><path d="M1180.165 18.778h3.109v83.889h-3.109z" style="fill:#303030" transform="matrix(.26458 0 0 .26458 -257.006 -7.056)"/><path d="m1302.253 41.229 38.018 44.959-12.75 12.748-45.108-38.166" style="fill:#201f23" transform="matrix(.26458 0 0 .26458 -257.006 -7.056)"/><circle cx="1279.758" cy="38.424" r="22.575" style="fill:#f5f5f5" transform="matrix(.26458 0 0 .26458 -257.006 -7.056)"/><path d="M1263.513 42.784a.98.98 0 0 1-.98-.978v-6.762a.982.982 0 0 1 1.962 0v6.762a.98.98 0 0 1-.982.978M1269.978 52.559a.98.98 0 0 1-.98-.982V25.27a.982.982 0 0 1 1.963 0v26.307a.983.983 0 0 1-.983.982M1289.374 52.559a.98.98 0 0 1-.98-.982V25.27a.98.98 0 0 1 1.96 0v26.307a.98.98 0 0 1-.98.982M1295.839 42.784a.98.98 0 0 1-.982-.978v-6.762a.982.982 0 0 1 1.966 0v6.762a.983.983 0 0 1-.984.978M1276.519 55.872a.983.983 0 0 1-.984-.981V21.96a.982.982 0 1 1 1.964 0v32.932c0 .538-.439.98-.98.98M1282.982 55.872a.984.984 0 0 1-.982-.981V21.96a.982.982 0 0 1 1.964 0v32.932c0 .538-.439.98-.982.98" style="fill:#e6e6e6" transform="matrix(.26458 0 0 .26458 -257.006 -7.056)"/><path d="M1283.056 23.245h-6.76a.982.982 0 0 1 0-1.966h6.76a.983.983 0 0 1 0 1.966M1292.827 29.708h-26.303a.982.982 0 0 1 0-1.964h26.303a.982.982 0 0 1 0 1.964M1292.827 49.102h-26.303a.98.98 0 0 1-.982-.98c0-.541.439-.982.982-.982h26.303c.543 0 .982.441.982.982a.98.98 0 0 1-.982.98M1283.056 55.569h-6.76a.98.98 0 0 1 0-1.962h6.76a.98.98 0 1 1 0 1.962M1296.142 36.247h-32.93a.98.98 0 1 1 0-1.963h32.93a.98.98 0 0 1 .98.982.98.98 0 0 1-.98.981M1263.212 42.715a.986.986 0 0 1-.982-.986.98.98 0 0 1 .982-.979l32.93-.004a.982.982 0 0 1 0 1.962zM1340.292 86.212l6.453 6.451-12.748 12.75-6.476-6.477" style="fill:#e6e6e6" transform="matrix(.26458 0 0 .26458 -257.006 -7.056)"/><circle cx="1309.256" cy="67.922" r="5.563" style="fill:#de4545" transform="rotate(-45.016 209.379 324.555)scale(.26458)"/><circle cx="1308.433" cy="67.098" r="3.62" style="fill:#f24d4c" transform="rotate(-44.976 209.17 324.641)scale(.26458)"/><ellipse cx="880.729" cy="170.01" rx="31.091" ry="9.824" style="fill:#88c0cf" transform="matrix(.26458 0 0 .26458 -257.006 -7.056)"/><path d="M844.262 183.459h2.18v9.82h-2.18z" style="fill:#2b2b2b" transform="matrix(.26458 0 0 .26458 -257.006 -7.056)"/><path d="M846.442 183.459h2.18v9.82h-2.18z" style="fill:#3d3d3d" transform="matrix(.26458 0 0 .26458 -257.006 -7.056)"/><path d="M848.548 183.459h2.18v9.82h-2.18z" style="fill:#2b2b2b" transform="matrix(.26458 0 0 .26458 -257.006 -7.056)"/><path d="M850.728 183.459h2.181v9.82h-2.181z" style="fill:#3d3d3d" transform="matrix(.26458 0 0 .26458 -257.006 -7.056)"/><path d="M852.835 183.459h2.18v9.82h-2.18z" style="fill:#2b2b2b" transform="matrix(.26458 0 0 .26458 -257.006 -7.056)"/><path d="M855.014 183.459h2.18v9.82h-2.18z" style="fill:#3d3d3d" transform="matrix(.26458 0 0 .26458 -257.006 -7.056)"/><path d="M857.12 183.459h2.181v9.82h-2.181z" style="fill:#2b2b2b" transform="matrix(.26458 0 0 .26458 -257.006 -7.056)"/><path d="M859.3 183.459h2.18v9.82h-2.18z" style="fill:#3d3d3d" transform="matrix(.26458 0 0 .26458 -257.006 -7.056)"/><path d="M861.407 183.459h2.18v9.82h-2.18z" style="fill:#2b2b2b" transform="matrix(.26458 0 0 .26458 -257.006 -7.056)"/><path d="M863.587 183.459h2.178v9.82h-2.178z" style="fill:#3d3d3d" transform="matrix(.26458 0 0 .26458 -257.006 -7.056)"/><path d="M865.692 183.459h2.18v9.82h-2.18z" style="fill:#2b2b2b" transform="matrix(.26458 0 0 .26458 -257.006 -7.056)"/><path d="M867.872 183.459h2.18v9.82h-2.18z" style="fill:#3d3d3d" transform="matrix(.26458 0 0 .26458 -257.006 -7.056)"/><path d="M869.977 183.459h2.18v9.82h-2.18z" style="fill:#2b2b2b" transform="matrix(.26458 0 0 .26458 -257.006 -7.056)"/><path d="M872.157 183.459h2.18v9.82h-2.18z" style="fill:#3d3d3d" transform="matrix(.26458 0 0 .26458 -257.006 -7.056)"/><path d="M874.264 183.459h2.18v9.82h-2.18z" style="fill:#2b2b2b" transform="matrix(.26458 0 0 .26458 -257.006 -7.056)"/><path d="M876.444 183.459h2.18v9.82h-2.18z" style="fill:#3d3d3d" transform="matrix(.26458 0 0 .26458 -257.006 -7.056)"/><path d="M878.549 183.459h2.179v9.82h-2.179z" style="fill:#2b2b2b" transform="matrix(.26458 0 0 .26458 -257.006 -7.056)"/><path d="M880.728 183.459h2.181v9.82h-2.181z" style="fill:#3d3d3d" transform="matrix(.26458 0 0 .26458 -257.006 -7.056)"/><path d="M882.836 183.459h2.179v9.82h-2.179z" style="fill:#2b2b2b" transform="matrix(.26458 0 0 .26458 -257.006 -7.056)"/><path d="M885.014 183.459h2.181v9.82h-2.181z" style="fill:#3d3d3d" transform="matrix(.26458 0 0 .26458 -257.006 -7.056)"/><path d="M887.121 183.459h2.18v9.82h-2.18z" style="fill:#2b2b2b" transform="matrix(.26458 0 0 .26458 -257.006 -7.056)"/><path d="M889.3 183.459h2.181v9.82H889.3z" style="fill:#3d3d3d" transform="matrix(.26458 0 0 .26458 -257.006 -7.056)"/><path d="M891.407 183.459h2.18v9.82h-2.18z" style="fill:#2b2b2b" transform="matrix(.26458 0 0 .26458 -257.006 -7.056)"/><path d="M893.587 183.459h2.181v9.82h-2.181z" style="fill:#3d3d3d" transform="matrix(.26458 0 0 .26458 -257.006 -7.056)"/><path d="M895.693 183.459h2.18v9.82h-2.18z" style="fill:#2b2b2b" transform="matrix(.26458 0 0 .26458 -257.006 -7.056)"/><path d="M897.872 183.459h2.181v9.82h-2.181z" style="fill:#3d3d3d" transform="matrix(.26458 0 0 .26458 -257.006 -7.056)"/><path d="M899.979 183.459h2.18v9.82h-2.18z" style="fill:#2b2b2b" transform="matrix(.26458 0 0 .26458 -257.006 -7.056)"/><path d="M902.159 183.459h2.18v9.82h-2.18z" style="fill:#3d3d3d" transform="matrix(.26458 0 0 .26458 -257.006 -7.056)"/><path d="M904.265 183.459h2.18v9.82h-2.18z" style="fill:#2b2b2b" transform="matrix(.26458 0 0 .26458 -257.006 -7.056)"/><path d="M906.445 183.459h2.18v9.82h-2.18z" style="fill:#3d3d3d" transform="matrix(.26458 0 0 .26458 -257.006 -7.056)"/><path d="M908.551 183.459h2.18v9.82h-2.18z" style="fill:#2b2b2b" transform="matrix(.26458 0 0 .26458 -257.006 -7.056)"/><path d="M910.731 183.459h2.18v9.82h-2.18z" style="fill:#3d3d3d" transform="matrix(.26458 0 0 .26458 -257.006 -7.056)"/><path d="M912.838 183.459h2.179v9.82h-2.179z" style="fill:#2b2b2b" transform="matrix(.26458 0 0 .26458 -257.006 -7.056)"/><path d="M915.016 183.459h2.181v9.82h-2.181z" style="fill:#3d3d3d" transform="matrix(.26458 0 0 .26458 -257.006 -7.056)"/><path d="M847.447 210.015h66.565v15.086h-66.565z" style="fill:#1a1a1a" transform="matrix(.26458 0 0 .26458 -257.006 -7.056)"/><path d="M844.262 207.334h72.935l-3.185 2.755h-66.565zM844.262 193.279h72.935v14.055h-72.935z" style="fill:#1a1a1a" transform="matrix(.26458 0 0 .26458 -257.006 -7.056)"/><path d="M-29.072 44.997h10.186v2.136h-10.186z"/><path d="M863.587 197.181h34.286v7.184h-34.286z" style="fill:#757575" transform="matrix(.26458 0 0 .26458 -257.006 -7.056)"/><path d="M844.262 175.552h72.935v7.957h-72.935z" style="fill:#1a1a1a" transform="matrix(.26458 0 0 .26458 -257.006 -7.056)"/><path d="M846.442 174.175h68.574v1.377h-68.574zM851.999 225.101h57.463v15.385h-57.463z" style="fill:#1a1a1a" transform="matrix(.26458 0 0 .26458 -257.006 -7.056)"/><path d="M844.262 166.162h72.935v8.014h-72.935z" style="fill:#1a1a1a" transform="matrix(.26458 0 0 .26458 -257.006 -7.056)"/><path d="M847.447 212.209h1.989v8.967h-1.989z" style="fill:#2b2b2b" transform="matrix(.26458 0 0 .26458 -257.006 -7.056)"/><path d="M849.436 212.209h1.988v8.967h-1.988z" style="fill:#3d3d3d" transform="matrix(.26458 0 0 .26458 -257.006 -7.056)"/><path d="M851.358 212.209h1.99v8.967h-1.99z" style="fill:#2b2b2b" transform="matrix(.26458 0 0 .26458 -257.006 -7.056)"/><path d="M853.348 212.209h1.988v8.967h-1.988z" style="fill:#3d3d3d" transform="matrix(.26458 0 0 .26458 -257.006 -7.056)"/><path d="M855.27 212.209h1.988v8.967h-1.988z" style="fill:#2b2b2b" transform="matrix(.26458 0 0 .26458 -257.006 -7.056)"/><path d="M857.258 212.209h1.991v8.967h-1.991z" style="fill:#3d3d3d" transform="matrix(.26458 0 0 .26458 -257.006 -7.056)"/><path d="M859.181 212.209h1.989v8.967h-1.989z" style="fill:#2b2b2b" transform="matrix(.26458 0 0 .26458 -257.006 -7.056)"/><path d="M861.171 212.209h1.991v8.967h-1.991z" style="fill:#3d3d3d" transform="matrix(.26458 0 0 .26458 -257.006 -7.056)"/><path d="M863.093 212.209h1.99v8.967h-1.99z" style="fill:#2b2b2b" transform="matrix(.26458 0 0 .26458 -257.006 -7.056)"/><path d="M865.083 212.209h1.987v8.967h-1.987z" style="fill:#3d3d3d" transform="matrix(.26458 0 0 .26458 -257.006 -7.056)"/><path d="M867.005 212.209h1.988v8.967h-1.988z" style="fill:#2b2b2b" transform="matrix(.26458 0 0 .26458 -257.006 -7.056)"/><path d="M868.994 212.209h1.99v8.967h-1.99z" style="fill:#3d3d3d" transform="matrix(.26458 0 0 .26458 -257.006 -7.056)"/><path d="M870.917 212.209h1.989v8.967h-1.989z" style="fill:#2b2b2b" transform="matrix(.26458 0 0 .26458 -257.006 -7.056)"/><path d="M872.906 212.209h1.991v8.967h-1.991z" style="fill:#3d3d3d" transform="matrix(.26458 0 0 .26458 -257.006 -7.056)"/><path d="M874.828 212.209h1.99v8.967h-1.99z" style="fill:#2b2b2b" transform="matrix(.26458 0 0 .26458 -257.006 -7.056)"/><path d="M876.818 212.209h1.991v8.967h-1.991z" style="fill:#3d3d3d" transform="matrix(.26458 0 0 .26458 -257.006 -7.056)"/><path d="M878.741 212.209h1.987v8.967h-1.987z" style="fill:#2b2b2b" transform="matrix(.26458 0 0 .26458 -257.006 -7.056)"/><path d="M880.728 212.209h1.99v8.967h-1.99z" style="fill:#3d3d3d" transform="matrix(.26458 0 0 .26458 -257.006 -7.056)"/><path d="M882.653 212.209h1.988v8.967h-1.988z" style="fill:#2b2b2b" transform="matrix(.26458 0 0 .26458 -257.006 -7.056)"/><path d="M884.641 212.209h1.989v8.967h-1.989z" style="fill:#3d3d3d" transform="matrix(.26458 0 0 .26458 -257.006 -7.056)"/><path d="M886.563 212.209h1.99v8.967h-1.99z" style="fill:#2b2b2b" transform="matrix(.26458 0 0 .26458 -257.006 -7.056)"/><path d="M888.553 212.209h1.988v8.967h-1.988z" style="fill:#3d3d3d" transform="matrix(.26458 0 0 .26458 -257.006 -7.056)"/><path d="M890.475 212.209h1.99v8.967h-1.99z" style="fill:#2b2b2b" transform="matrix(.26458 0 0 .26458 -257.006 -7.056)"/><path d="M892.465 212.209h1.988v8.967h-1.988z" style="fill:#3d3d3d" transform="matrix(.26458 0 0 .26458 -257.006 -7.056)"/><path d="M894.387 212.209h1.988v8.967h-1.988z" style="fill:#2b2b2b" transform="matrix(.26458 0 0 .26458 -257.006 -7.056)"/><path d="M896.376 212.209h1.99v8.967h-1.99z" style="fill:#3d3d3d" transform="matrix(.26458 0 0 .26458 -257.006 -7.056)"/><path d="M898.298 212.209h1.989v8.967h-1.989z" style="fill:#2b2b2b" transform="matrix(.26458 0 0 .26458 -257.006 -7.056)"/><path d="M900.288 212.209h1.99v8.967h-1.99z" style="fill:#3d3d3d" transform="matrix(.26458 0 0 .26458 -257.006 -7.056)"/><path d="M902.211 212.209h1.989v8.967h-1.989z" style="fill:#2b2b2b" transform="matrix(.26458 0 0 .26458 -257.006 -7.056)"/><path d="M904.2 212.209h1.989v8.967H904.2z" style="fill:#3d3d3d" transform="matrix(.26458 0 0 .26458 -257.006 -7.056)"/><path d="M906.122 212.209h1.989v8.967h-1.989z" style="fill:#2b2b2b" transform="matrix(.26458 0 0 .26458 -257.006 -7.056)"/><path d="M908.111 212.209h1.99v8.967h-1.99z" style="fill:#3d3d3d" transform="matrix(.26458 0 0 .26458 -257.006 -7.056)"/><path d="M910.033 212.209h1.99v8.967h-1.99z" style="fill:#2b2b2b" transform="matrix(.26458 0 0 .26458 -257.006 -7.056)"/><path d="M912.023 212.209h1.989v8.967h-1.989z" style="fill:#3d3d3d" transform="matrix(.26458 0 0 .26458 -257.006 -7.056)"/><path d="M844.262 177.711h72.935v1.674h-72.935z" style="fill:#c43737" transform="matrix(.26458 0 0 .26458 -257.006 -7.056)"/><ellipse cx="461.821" cy="171.42" rx="35.565" ry="9.822" style="fill:#88c0cf" transform="matrix(.26458 0 0 .26458 -257.006 -7.056)"/><path d="M420.106 177.526h2.493v14.967h-2.493z" style="fill:#2b2b2b" transform="matrix(.26458 0 0 .26458 -257.006 -7.056)"/><path d="M422.599 177.526h2.494v14.967h-2.494z" style="fill:#3d3d3d" transform="matrix(.26458 0 0 .26458 -257.006 -7.056)"/><path d="M425.009 177.526h2.494v14.967h-2.494z" style="fill:#2b2b2b" transform="matrix(.26458 0 0 .26458 -257.006 -7.056)"/><path d="M427.503 177.526h2.494v14.967h-2.494z" style="fill:#3d3d3d" transform="matrix(.26458 0 0 .26458 -257.006 -7.056)"/><path d="M429.911 177.526h2.493v14.967h-2.493z" style="fill:#2b2b2b" transform="matrix(.26458 0 0 .26458 -257.006 -7.056)"/><path d="M432.405 177.526h2.493v14.967h-2.493z" style="fill:#3d3d3d" transform="matrix(.26458 0 0 .26458 -257.006 -7.056)"/><path d="M434.814 177.526h2.494v14.967h-2.494z" style="fill:#2b2b2b" transform="matrix(.26458 0 0 .26458 -257.006 -7.056)"/><path d="M437.308 177.526h2.493v14.967h-2.493z" style="fill:#3d3d3d" transform="matrix(.26458 0 0 .26458 -257.006 -7.056)"/><path d="M439.716 177.526h2.494v14.967h-2.494z" style="fill:#2b2b2b" transform="matrix(.26458 0 0 .26458 -257.006 -7.056)"/><path d="M442.21 177.526h2.492v14.967h-2.492z" style="fill:#3d3d3d" transform="matrix(.26458 0 0 .26458 -257.006 -7.056)"/><path d="M444.619 177.526h2.493v14.967h-2.493z" style="fill:#2b2b2b" transform="matrix(.26458 0 0 .26458 -257.006 -7.056)"/><path d="M447.112 177.526h2.494v14.967h-2.494z" style="fill:#3d3d3d" transform="matrix(.26458 0 0 .26458 -257.006 -7.056)"/><path d="M449.522 177.526h2.494v14.967h-2.494z" style="fill:#2b2b2b" transform="matrix(.26458 0 0 .26458 -257.006 -7.056)"/><path d="M452.016 177.526h2.493v14.967h-2.493z" style="fill:#3d3d3d" transform="matrix(.26458 0 0 .26458 -257.006 -7.056)"/><path d="M454.423 177.526h2.493v14.967h-2.493z" style="fill:#2b2b2b" transform="matrix(.26458 0 0 .26458 -257.006 -7.056)"/><path d="M456.916 177.526h2.495v14.967h-2.495z" style="fill:#3d3d3d" transform="matrix(.26458 0 0 .26458 -257.006 -7.056)"/><path d="M459.327 177.526h2.493v14.967h-2.493z" style="fill:#2b2b2b" transform="matrix(.26458 0 0 .26458 -257.006 -7.056)"/><path d="M461.82 177.526h2.493v14.967h-2.493z" style="fill:#3d3d3d" transform="matrix(.26458 0 0 .26458 -257.006 -7.056)"/><path d="M464.231 177.526h2.492v14.967h-2.492z" style="fill:#2b2b2b" transform="matrix(.26458 0 0 .26458 -257.006 -7.056)"/><path d="M466.723 177.526h2.494v14.967h-2.494z" style="fill:#3d3d3d" transform="matrix(.26458 0 0 .26458 -257.006 -7.056)"/><path d="M469.131 177.526h2.494v14.967h-2.494z" style="fill:#2b2b2b" transform="matrix(.26458 0 0 .26458 -257.006 -7.056)"/><path d="M471.625 177.526h2.493v14.967h-2.493z" style="fill:#3d3d3d" transform="matrix(.26458 0 0 .26458 -257.006 -7.056)"/><path d="M474.034 177.526h2.494v14.967h-2.494z" style="fill:#2b2b2b" transform="matrix(.26458 0 0 .26458 -257.006 -7.056)"/><path d="M476.529 177.526h2.492v14.967h-2.492z" style="fill:#3d3d3d" transform="matrix(.26458 0 0 .26458 -257.006 -7.056)"/><path d="M478.938 177.526h2.494v14.967h-2.494z" style="fill:#2b2b2b" transform="matrix(.26458 0 0 .26458 -257.006 -7.056)"/><path d="M481.432 177.526h2.493v14.967h-2.493z" style="fill:#3d3d3d" transform="matrix(.26458 0 0 .26458 -257.006 -7.056)"/><path d="M483.84 177.526h2.493v14.967h-2.493z" style="fill:#2b2b2b" transform="matrix(.26458 0 0 .26458 -257.006 -7.056)"/><path d="M486.333 177.526h2.493v14.967h-2.493z" style="fill:#3d3d3d" transform="matrix(.26458 0 0 .26458 -257.006 -7.056)"/><path d="M488.743 177.526h2.492v14.967h-2.492z" style="fill:#2b2b2b" transform="matrix(.26458 0 0 .26458 -257.006 -7.056)"/><path d="M491.236 177.526h2.494v14.967h-2.494z" style="fill:#3d3d3d" transform="matrix(.26458 0 0 .26458 -257.006 -7.056)"/><path d="M493.644 177.526h2.496v14.967h-2.496z" style="fill:#2b2b2b" transform="matrix(.26458 0 0 .26458 -257.006 -7.056)"/><path d="M496.14 177.526h2.492v14.967h-2.492z" style="fill:#3d3d3d" transform="matrix(.26458 0 0 .26458 -257.006 -7.056)"/><path d="M498.547 177.526h2.495v14.967h-2.495z" style="fill:#2b2b2b" transform="matrix(.26458 0 0 .26458 -257.006 -7.056)"/><path d="M501.042 177.526h2.493v14.967h-2.493z" style="fill:#3d3d3d" transform="matrix(.26458 0 0 .26458 -257.006 -7.056)"/><path d="M423.747 202.151h76.145v19.59h-76.145z" style="fill:#1a1a1a" transform="matrix(.26458 0 0 .26458 -257.006 -7.056)"/><path d="M420.106 196.258h83.429l-3.642 5.967h-76.146z" style="fill:#1a1a1a" transform="matrix(.26458 0 0 .26458 -257.006 -7.056)"/><path d="M420.106 192.493h83.43v3.766h-83.43z" style="fill:#1a1a1a" transform="matrix(.26458 0 0 .26458 -257.006 -7.056)"/><path d="M-140.642 47.524h11.652v3.059h-11.652z"/><path d="M442.21 206.919h39.222v10.293H442.21z" style="fill:#757575" transform="matrix(.26458 0 0 .26458 -257.006 -7.056)"/><path d="M420.106 168.333h83.43v9.246h-83.43zM433.089 221.741h57.463v15.379h-57.463z" style="fill:#1a1a1a" transform="matrix(.26458 0 0 .26458 -257.006 -7.056)"/><path d="M420.107 171.618h83.429v1.676h-83.429z" style="fill:#c43737" transform="matrix(.26458 0 0 .26458 -257.006 -7.056)"/><path d="M157.792 99.159c-7.899 0-14.364-6.463-14.364-14.365V31.805c0-7.902 6.465-14.361 14.365-14.361h73.416c7.901 0 14.365 6.459 14.365 14.361v52.988c0 7.902-6.464 14.365-14.365 14.365h-73.417z" style="fill:#fafafa" transform="matrix(.26458 0 0 .26458 -257.006 -7.056)"/><circle cx="186.303" cy="58.301" r="35.289" style="fill:#4b423e" transform="matrix(.26458 0 0 .26458 -257.006 -7.056)"/><circle cx="186.303" cy="58.301" r="35.289" style="fill:#212120" transform="matrix(.26458 0 0 .26458 -257.006 -7.056)"/><path d="M186.303 90.411c-17.705 0-32.11-14.404-32.11-32.109 0-17.707 14.405-32.113 32.11-32.113s32.11 14.406 32.11 32.113c0 17.704-14.405 32.109-32.11 32.109m0-64.055c-17.614 0-31.944 14.332-31.944 31.945s14.33 31.945 31.944 31.945 31.944-14.332 31.944-31.945-14.33-31.945-31.944-31.945" style="fill:#82827e" transform="matrix(.26458 0 0 .26458 -257.006 -7.056)"/><path d="M186.303 86.919c-15.778 0-28.616-12.84-28.616-28.617s12.838-28.615 28.616-28.615 28.615 12.838 28.615 28.615-12.837 28.617-28.615 28.617m0-57.069c-15.687 0-28.45 12.766-28.45 28.451 0 15.688 12.763 28.449 28.45 28.449s28.45-12.762 28.45-28.449c0-15.685-12.764-28.451-28.45-28.451" style="fill:#82827e" transform="matrix(.26458 0 0 .26458 -257.006 -7.056)"/><path d="M186.303 83.421c-13.852 0-25.121-11.266-25.121-25.119s11.269-25.121 25.121-25.121c13.853 0 25.12 11.269 25.12 25.121 0 13.853-11.268 25.119-25.12 25.119m0-50.077c-13.761 0-24.955 11.197-24.955 24.957 0 13.762 11.194 24.957 24.955 24.957s24.956-11.195 24.956-24.957c0-13.759-11.195-24.957-24.956-24.957" style="fill:#82827e" transform="matrix(.26458 0 0 .26458 -257.006 -7.056)"/><path d="M186.303 79.805c-11.856 0-21.505-9.647-21.505-21.504 0-11.855 9.648-21.506 21.505-21.506 11.858 0 21.505 9.65 21.505 21.506 0 11.858-9.648 21.504-21.505 21.504m0-42.841c-11.767 0-21.339 9.57-21.339 21.338s9.572 21.336 21.339 21.336 21.339-9.568 21.339-21.336-9.573-21.338-21.339-21.338" style="fill:#82827e" transform="matrix(.26458 0 0 .26458 -257.006 -7.056)"/><path d="M186.303 76.194c-9.866 0-17.893-8.029-17.893-17.893 0-9.867 8.027-17.893 17.893-17.893s17.894 8.025 17.894 17.893c-.001 9.864-8.028 17.893-17.894 17.893m0-35.619c-9.775 0-17.728 7.951-17.728 17.727 0 9.773 7.953 17.729 17.728 17.729s17.728-7.955 17.728-17.729c-.001-9.776-7.953-17.727-17.728-17.727" style="fill:#82827e" transform="matrix(.26458 0 0 .26458 -257.006 -7.056)"/><circle cx="186.303" cy="58.3" r="13.605" style="fill:#52fff9" transform="matrix(.26458 0 0 .26458 -257.006 -7.056)"/><circle cx="186.303" cy="58.3" r="1.229" style="fill:#4b423e" transform="matrix(.26458 0 0 .26458 -257.006 -7.056)"/><circle cx="230.357" cy="32.715" r="7.504" style="fill:#212120" transform="matrix(.26458 0 0 .26458 -257.006 -7.056)"/><circle cx="230.357" cy="32.715" r="4.289" style="fill:#ccc" transform="matrix(.26458 0 0 .26458 -257.006 -7.056)"/><path d="M230.357 65.417a1.61 1.61 0 0 1-1.607-1.607V32.715c0-.889.72-1.611 1.607-1.611s1.608.723 1.608 1.611v31.094a1.61 1.61 0 0 1-1.608 1.608" style="fill:#dedede" transform="matrix(.26458 0 0 .26458 -257.006 -7.056)"/><path d="M224.568 83.753q-.24 0-.483-.072a1.61 1.61 0 0 1-1.05-2.022l5.789-18.336a1.609 1.609 0 1 1 3.068.968l-5.789 18.338a1.61 1.61 0 0 1-1.535 1.124" style="fill:#dedede" transform="matrix(.26458 0 0 .26458 -257.006 -7.056)"/><path d="M215.934 78.838h16.676v6.412h-16.676z" style="fill:#b0b0b0" transform="rotate(-71.223 -74.092 197.596)scale(.26459)"/><path d="M700.165 39.423c0-13.803 11.295-25.098 25.102-25.098h40.491c13.805 0 25.1 11.295 25.1 25.098v40.492c0 13.807-11.295 25.1-25.1 25.1h-40.491c-13.807 0-25.102-11.293-25.102-25.1z" style="fill:#fff" transform="matrix(.26458 0 0 .26458 -257.006 -7.056)"/><path d="M756.972 40.971c-3.299-1.645-6.418-3.203-8.795-6.543a3.46 3.46 0 0 0-3.061-1.842 3.47 3.47 0 0 0-3.47 3.467v25.002a13.97 13.97 0 0 0-7.128-1.949c-7.754 0-14.063 6.312-14.063 14.066 0 7.752 6.309 14.062 14.063 14.062s14.064-6.311 14.064-14.062V41.407c2.082 1.588 4.282 2.686 6.327 3.703 4.171 2.078 7.466 3.721 9.138 8.641 1.275 3.758-1.053 7.639-5.791 9.658a2.311 2.311 0 1 0 1.812 4.252c6.987-2.977 10.423-9.309 8.356-15.398-2.281-6.723-7.154-9.153-11.452-11.292m-22.453 39.33c-3.93 0-7.127-3.199-7.127-7.129 0-3.932 3.197-7.129 7.127-7.129a7.135 7.135 0 0 1 7.128 7.129c0 3.93-3.197 7.129-7.128 7.129" style="fill:#692575" transform="matrix(.26458 0 0 .26458 -257.006 -7.056)"/></svg>