<svg xmlns="http://www.w3.org/2000/svg" width="2048" height="2048"><path fill="#100906" d="m1376.198 1296.526-.267-426.871c0-6.639-6.361-11.618-13.177-11.618-7.271 0-12.724 4.979-12.724 11.618l.277 442.981-83.138 51.73-.293-425.837c0-6.223-5.908-11.617-12.724-11.617-7.27 0-12.723 5.394-12.723 11.617l.305 441.663-84.496 52.575-.327-424.119c0-6.223-5.452-11.617-12.723-11.617-7.27 0-12.723 5.394-12.723 11.618l.339 439.944-83.579 52.005-.37-423.075c0-6.639-5.452-11.617-12.722-11.617-6.816 0-12.724 4.978-12.724 11.617l.38 435.641q-8.373.678-16.747-4.905l-371.725-232.328c-6.638-4.979-11.617-11.617-11.617-21.574V792.62c0-9.957 6.638-18.254 13.276-21.573l373.385-232.328q14.936-9.957 29.87 0l371.726 232.328c6.638 4.978 11.616 11.616 11.616 21.573v461.737c0 9.957-6.638 18.255-13.276 21.574zM357.182 875.771v534.578c0 9.957 6.638 18.254 13.276 21.573l637.243 398.277c11.617 4.979 23.233 4.979 29.871 0l637.243-398.277c8.298-6.638 13.276-13.275 13.276-21.573V636.628c0-9.956-6.638-18.254-13.276-21.573l-637.243-398.277c-11.616-4.978-23.233-4.978-29.87 0L370.457 615.055c-8.297 6.638-13.276 13.276-13.276 21.573v239.143"/></svg>