<?xml version="1.0" encoding="UTF-8" standalone="no"?>
<!-- Created with Inkscape (http://www.inkscape.org/) -->

<svg
   xmlns:dc="http://purl.org/dc/elements/1.1/"
   xmlns:cc="http://creativecommons.org/ns#"
   xmlns:rdf="http://www.w3.org/1999/02/22-rdf-syntax-ns#"
   xmlns:svg="http://www.w3.org/2000/svg"
   xmlns="http://www.w3.org/2000/svg"
   xmlns:sodipodi="http://sodipodi.sourceforge.net/DTD/sodipodi-0.dtd"
   xmlns:inkscape="http://www.inkscape.org/namespaces/inkscape"
   width="67.73333mm"
   height="67.73333mm"
   viewBox="0 0 67.73333 67.73333"
   version="1.1"
   id="svg742"
   inkscape:version="0.92.4 (5da689c313, 2019-01-14)"
   sodipodi:docname="spacehead.svg">
  <defs
     id="defs736" />
  <sodipodi:namedview
     id="base"
     pagecolor="#ffffff"
     bordercolor="#666666"
     borderopacity="1.0"
     inkscape:pageopacity="0.0"
     inkscape:pageshadow="2"
     inkscape:zoom="3.1562502"
     inkscape:cx="127.99999"
     inkscape:cy="127.99999"
     inkscape:document-units="mm"
     inkscape:current-layer="layer1"
     showgrid="false" />
  <metadata
     id="metadata739">
    <rdf:RDF>
      <cc:Work
         rdf:about="">
        <dc:format>image/svg+xml</dc:format>
        <dc:type
           rdf:resource="http://purl.org/dc/dcmitype/StillImage" />
        <dc:title></dc:title>
      </cc:Work>
    </rdf:RDF>
  </metadata>
  <g
     inkscape:label="Layer 1"
     inkscape:groupmode="layer"
     id="layer1"
     transform="translate(-53.067852,-148.22858)">
    <g
       inkscape:groupmode="layer"
       id="layer2"
       inkscape:label="gray1"
       style="display:inline">
      <path
         style="display:inline;fill:#d8d8d8;fill-opacity:1;stroke:#000000;stroke-width:0.26458332px;stroke-linecap:butt;stroke-linejoin:miter;stroke-opacity:1"
         d="m 60.025607,181.34079 1.760396,-9.64026 2.766337,-6.37096 3.688448,-5.44885 5.951815,-4.52673 6.790097,-2.26336 5.113533,-0.50297 5.281188,0.25148 6.622442,1.7604 4.778217,3.01782 4.35908,4.02376 4.02376,6.87393 2.43102,8.29901 0.67063,11.73597 -0.5868,5.6165 -2.68251,6.87393 -5.70033,5.86798 -6.873925,3.18548 -4.366935,1.55625 -6.949896,0.28798 -10.227063,-1.50891 -7.71221,-3.26931 -5.19736,-4.77822 -3.017821,-5.86798 -1.844225,-7.79604 0.251485,-4.35908 z"
         id="path19199"
         inkscape:connector-curvature="0"
         sodipodi:nodetypes="ccccccccccccccccccccccccccc" />
      <ellipse
         id="path18392"
         cx="93.934189"
         cy="187.87941"
         rx="15.801649"
         ry="13.496369"
         style="display:inline;fill:#757575;fill-opacity:1;stroke-width:0.27595899" />
      <path
         style="display:inline;fill:none;stroke:#a8a8a8;stroke-width:1;stroke-linecap:butt;stroke-linejoin:miter;stroke-miterlimit:4;stroke-dasharray:none;stroke-opacity:1"
         d="m 63.336829,195.59162 c 1.548312,1.36065 3.024588,2.822 4.617392,4.12045 2.204427,1.18979 4.365222,2.48238 6.596811,3.60816 2.232425,0.64662 4.436252,1.4287 6.686856,1.98921 2.024913,0.2335 4.043126,0.57908 6.088681,0.46732 1.996416,0.0421 4.002851,-0.0905 5.975079,-0.3688 1.916298,-0.51254 3.872573,-0.90394 5.677248,-1.75472 1.792574,-0.71233 3.531294,-1.57616 5.223354,-2.49509 1.55322,-0.94608 3.02009,-2.01015 4.389,-3.20808 0.99647,-0.81479 1.67426,-1.985 2.52775,-2.94525"
         id="path19213"
         inkscape:connector-curvature="0" />
      <path
         style="fill:none;stroke:#e8e8e8;stroke-width:1;stroke-linecap:butt;stroke-linejoin:miter;stroke-miterlimit:4;stroke-dasharray:none;stroke-opacity:1"
         d="m 65.306795,164.15598 2.514851,-3.2274 3.856106,-3.43696 4.40099,-2.17954 3.772277,-1.25743 3.730363,-0.54488 3.562705,-0.0419 3.646535,0.16766 4.023762,0.75446 3.017822,1.13168 2.850164,1.34125 1.21551,0.8802 2.43102,1.80231 1.84423,1.92805 1.92805,2.17954 1.08977,1.84422"
         id="path19219"
         inkscape:connector-curvature="0"
         sodipodi:nodetypes="cccccccccccccccc" />
    </g>
    <path
       style="display:inline;fill:#000000;stroke-width:0.26458332"
       d="m 81.251545,212.49201 c -10.159321,-1.47947 -17.700978,-6.83339 -20.939435,-14.86518 -0.778855,-1.93166 -1.026105,-2.27152 -2.400483,-3.29966 -0.842707,-0.63041 -1.677769,-1.40807 -1.855693,-1.72813 -0.432549,-0.77809 -0.471886,-11.78187 -0.04546,-12.71777 0.163232,-0.35825 0.977308,-1.14437 1.809057,-1.74693 1.47693,-1.06996 1.519814,-1.13696 1.835002,-2.86681 0.449967,-2.46955 1.929183,-6.7911 3.18801,-9.31381 3.752764,-7.52059 9.45259,-12.09722 17.345103,-13.9271 3.002463,-0.69612 10.491287,-0.69612 13.49375,0 6.425814,1.48983 11.666134,4.99893 15.165874,10.1556 2.31399,3.40955 4.63653,9.0752 5.36979,13.09918 0.31757,1.74276 0.35931,1.80854 1.75968,2.77301 2.16335,1.48996 2.17882,1.54818 2.17722,8.19488 -0.002,6.61252 0.0233,6.52455 -2.34507,8.26899 -1.2403,0.91353 -1.5263,1.30776 -2.25545,3.10897 -3.29941,8.15048 -10.78161,13.40546 -21.194961,14.88588 -2.213814,0.31472 -8.887867,0.30204 -11.10693,-0.0211 z M 93.5491,210.51849 c 10.00389,-1.74776 16.61971,-7.22597 19.2096,-15.90648 0.58307,-1.95424 0.71704,-3.01692 0.83014,-6.58498 0.25412,-8.01707 -1.20494,-15.63325 -4.1016,-21.40991 -2.82263,-5.62903 -7.12023,-9.70126 -12.498557,-11.84312 -4.211629,-1.67724 -11.309265,-2.19167 -16.108536,-1.16754 -7.403157,1.57978 -12.963259,5.9791 -16.540052,13.08699 -2.867187,5.69775 -4.314462,13.30276 -4.059897,21.33358 0.113102,3.56806 0.247068,4.63074 0.830133,6.58498 2.838851,9.51492 10.493933,15.1626 22.12002,16.31945 2.827295,0.28133 7.389857,0.0987 10.318749,-0.41297 z m -11.509374,-5.24221 c -6.557678,-1.08721 -12.248041,-3.74393 -17.261966,-8.05929 -2.105611,-1.81224 -2.183686,-1.97847 -2.877281,-6.12591 -0.463671,-2.77258 -0.371156,-9.09867 0.1595,-10.90658 0.68595,-2.33699 7.129445,-5.93154 13.629747,-7.60345 4.275497,-1.09968 7.820652,-1.43723 13.162062,-1.25322 6.915989,0.23825 11.908732,1.47848 17.418062,4.32677 3.70946,1.91777 5.68169,3.46758 5.8951,4.63244 0.38047,2.07678 0.49169,8.12306 0.19144,10.40716 -0.47244,3.59407 -0.72584,4.29231 -2.08501,5.74537 -3.7569,4.01643 -9.83254,7.19749 -16.325405,8.54758 -2.827713,0.58798 -9.174109,0.74209 -11.906249,0.28913 z m 18.917704,-6.09176 1.98438,-0.84398 0.34054,-2.36796 c 0.40746,-2.83327 0.53284,-11.30085 0.22599,-15.26212 l -0.22,-2.83999 -2.42222,-0.77603 -2.422229,-0.77604 -0.158993,9.83373 c -0.08745,5.40856 -0.252807,10.82928 -0.367467,12.04604 l -0.208473,2.2123 0.63205,-0.19098 c 0.347628,-0.10505 1.525019,-0.57078 2.616422,-1.03497 z"
       id="path18388"
       inkscape:connector-curvature="0"
       inkscape:label="outline" />
  </g>
</svg>
