<?xml version="1.0" encoding="UTF-8" standalone="no"?>
<svg
   xmlns:dc="http://purl.org/dc/elements/1.1/"
   xmlns:cc="http://creativecommons.org/ns#"
   xmlns:rdf="http://www.w3.org/1999/02/22-rdf-syntax-ns#"
   xmlns:svg="http://www.w3.org/2000/svg"
   xmlns="http://www.w3.org/2000/svg"
   xmlns:sodipodi="http://sodipodi.sourceforge.net/DTD/sodipodi-0.dtd"
   xmlns:inkscape="http://www.inkscape.org/namespaces/inkscape"
   width="512"
   height="512"
   viewBox="0 0 512 512"
   version="1.1"
   preserveAspectRatio="xMidYMid"
   id="svg8"
   sodipodi:docname="favicon.svg"
   inkscape:export-filename="/home/jason/current-projects/html/img/terminal/favicon.svg.png"
   inkscape:export-xdpi="96"
   inkscape:export-ydpi="96"
   inkscape:version="0.92.3 (2405546, 2018-03-11)">
  <metadata
     id="metadata14">
    <rdf:RDF>
      <cc:Work
         rdf:about="">
        <dc:format>image/svg+xml</dc:format>
        <dc:type
           rdf:resource="http://purl.org/dc/dcmitype/StillImage" />
        <dc:title></dc:title>
      </cc:Work>
    </rdf:RDF>
  </metadata>
  <defs
     id="defs12" />
  <sodipodi:namedview
     pagecolor="#ffffff"
     bordercolor="#666666"
     borderopacity="1"
     objecttolerance="10"
     gridtolerance="10"
     guidetolerance="10"
     inkscape:pageopacity="0"
     inkscape:pageshadow="2"
     inkscape:window-width="640"
     inkscape:window-height="480"
     id="namedview10"
     showgrid="false"
     inkscape:zoom="1.6074219"
     inkscape:cx="256"
     inkscape:cy="256"
     inkscape:current-layer="svg8" />
  <g
     id="g6"
     transform="matrix(1.9987849,0,0,1.9987849,0,47.497696)">
    <rect
       x="0"
       y="0"
       width="256"
       height="209.34233"
       rx="5"
       id="rect2"
       style="fill:#000000" />
    <path
       d="m 28.241466,21.773578 c -0.855802,-0.855802 -1.888525,-1.283703 -3.098168,-1.283703 -1.209643,0 -2.24648,0.432015 -3.110511,1.296046 -0.851688,0.851687 -1.283703,1.888524 -1.283703,3.098168 0,1.209643 0.432015,2.24648 1.283703,3.098167 L 35.474638,41.424108 22.04513,54.853616 c -0.864031,0.864031 -1.296046,1.900868 -1.308389,3.110511 0.01234,1.209644 0.444358,2.246481 1.296046,3.098168 0.864031,0.851688 1.900868,1.283703 3.098168,1.296046 1.221986,0 2.258823,-0.432015 3.122854,-1.296046 L 43.1892,46.114561 c 3.135197,-3.122854 3.135197,-6.258052 0,-9.39325 z M 86.785728,54.878303 C 85.921697,54.014272 84.872517,53.582256 83.65053,53.582256 v -0.0062 H 54.816586 v 0.0062 c -1.221986,0 -2.258823,0.432016 -3.122854,1.296047 -0.864031,0.864031 -1.296046,1.900868 -1.296046,3.122854 0,1.221987 0.432015,2.271167 1.296046,3.135198 0.864031,0.864031 1.900868,1.296046 3.122854,1.296046 v -0.0062 H 83.65053 v 0.0062 c 1.221987,0 2.271167,-0.432015 3.135198,-1.296046 0.864031,-0.864031 1.296046,-1.913211 1.296046,-3.135198 0,-1.221986 -0.432015,-2.258823 -1.296046,-3.122854 z"
       id="path4"
       inkscape:connector-curvature="0"
       style="fill:#ffffff" />
  </g>
</svg>
